<?xml version="1.0" standalone="no"?><!DOCTYPE svg PUBLIC "-//W3C//DTD SVG 1.1//EN" "http://www.w3.org/Graphics/SVG/1.1/DTD/svg11.dtd"><svg t="1765696746957" class="icon" viewBox="0 0 1024 1024" version="1.1" xmlns="http://www.w3.org/2000/svg" p-id="6921" xmlns:xlink="http://www.w3.org/1999/xlink" width="16" height="16"><path d="M0 0h1024v1024H0z" fill="#009966" p-id="6922"></path><path d="M915.11035156 84.99482422c40.13964844 12.41982422 40.13964844 13.45517578 20.83447266 68.22070312-24.38964844 68.21982422-18.80947266 61.51464844-43.15429688 53.23447266-22.36552734-8.27929688-48.78017578-9.81035156-63-4.63535156-15.75 6.21035156-24.39052734 34.11035156-26.91035156 85.81552734-1.03535156 27.40429688-1.03535156 55.84482422 1.03447266 63.08964844 3.06035156 13.45517578 3.55517578 13.45517578 56.38535156 13.45517578h53.325v124.11035156H803.91464844l2.025 227.475 2.025 227.475-85.31982422-1.03535156-85.86035156-1.52929688 2.0258789-226.44140625 1.52929688-225.94394531H568.25v-124.11035156h71.1l-1.03535156-73.93535156c-0.49482422-57.375 1.03535156-80.14482422 8.14570312-103.90429688C663.2 127.925 698.79394531 92.77929687 755.675 76.21982422c33.48017578-9.80947266 116.23535156-5.175 159.43535156 8.775zM415.78964844 361.61035156c48.24052734 14.98535156 81.27070312 33.075 81.27070312 44.45947266 0 12.41982422-44.68535156 104.44482422-49.77070312 101.83535156a2562.72539062 2562.72539062 0 0 0-31.99482422-16.01982422c-55.35-27.9-121.40947266-29.475-147.28447266-3.10517578-10.66552734 10.84482422-13.18535156 40.31982422-4.59052734 56.88017578 6.61552734 11.87929688 32.49052734 25.82929688 87.34570312 46.52929688 84.32929687 31.54570312 127.97929687 63.58535156 148.31982422 108.04570312 8.63964844 18.62929688 10.66464844 33.075 10.66464844 72.36035156 0 62.54912109-12.19482422 92.51894531-51.3 128.74394532-79.73964844 73.93535156-243.81035156 74.97070313-356.03964844 2.56552734-14.71552734-9.81035156-26.91035156-21.19482422-26.91035156-25.83017578 0-7.73964844 35.55-78.56982422 47.25-93.55517578 3.55517578-5.175 9.13535156-3.10517578 23.35517578 8.28017578 26.90947266 21.19482422 68.03964844 41.35517578 98.55 47.56464844 53.325 10.84570313 100.08017578-15.525 100.08017578-56.33964844 0-28.43964844-18.81035156-46.52929688-66.55517578-65.16035156C141.56035156 665.08964844 94.80517578 617.03017578 93.81464844 530.675c-1.03447266-91.52929688 46.71035156-150.48017578 140.67070312-174.77929688 36.04394531-9.27070313 144.225-6.16552734 181.30429688 5.71464844z" fill="#FFFFFF" p-id="6923"></path></svg>