<?xml version="1.0" standalone="no"?><!DOCTYPE svg PUBLIC "-//W3C//DTD SVG 1.1//EN" "http://www.w3.org/Graphics/SVG/1.1/DTD/svg11.dtd"><svg t="1765709217280" class="icon" viewBox="0 0 1024 1024" version="1.1" xmlns="http://www.w3.org/2000/svg" p-id="19028" xmlns:xlink="http://www.w3.org/1999/xlink" width="16" height="16"><path d="M512 512m-512 0a512 512 0 1 0 1024 0 512 512 0 1 0-1024 0Z" fill="#57A6FF" p-id="19029"></path><path d="M140.493304 241.955886a46.55193 101.696557 29.75 1 0 80.832662 46.199672 46.55193 101.696557 29.75 1 0-80.832662-46.199672Z" fill="#FFFFFF" p-id="19030"></path><path d="M93.495652 431.86087m-22.260869 0a22.26087 22.26087 0 1 0 44.521739 0 22.26087 22.26087 0 1 0-44.521739 0Z" fill="#FFFFFF" p-id="19031"></path><path d="M832.556522 857.043478a24.486957 24.486957 0 1 0 0-48.973913 24.486957 24.486957 0 0 0 0 48.973913z m0 24.486957a48.973913 48.973913 0 1 0 0-97.947826 48.973913 48.973913 0 0 0 0 97.947826z" fill="#FFFFFF" p-id="19032"></path><path d="M774.678261 293.113322V774.678261H337.430261c-48.706783 0.06233-88.108522-39.401739-88.108522-88.046191V337.430261A88.046191 88.046191 0 0 1 337.430261 249.321739h349.673739v350.252522H337.955617c-24.647235 0-44.904626 20.257391-44.904626 44.8512v41.565496c0 24.63833 20.257391 44.895722 44.904626 44.895721h392.931061V293.113322H774.678261z m-87.574261 350.252521h-350.208v43.791583h350.261426v-43.791583h-0.06233z" fill="#FFFFFF" p-id="19033"></path></svg>