<?xml version="1.0" standalone="no"?><!DOCTYPE svg PUBLIC "-//W3C//DTD SVG 1.1//EN" "http://www.w3.org/Graphics/SVG/1.1/DTD/svg11.dtd"><svg t="1751976258319" class="icon" viewBox="0 0 1024 1024" version="1.1" xmlns="http://www.w3.org/2000/svg" p-id="22189" xmlns:xlink="http://www.w3.org/1999/xlink" width="16" height="16"><path d="M853.7 863.9H176.3c-28.2 0-51.2-23-51.2-51.2V214.1c0-28.2 23-51.2 51.2-51.2h677.4c28.2 0 51.2 23 51.2 51.2v598.6c0 28.3-23 51.2-51.2 51.2zM176.3 202.3c-6.4 0-11.8 5.4-11.8 11.8v598.6c0 6.4 5.4 11.8 11.8 11.8h677.4c6.4 0 11.8-5.4 11.8-11.8V214.1c0-6.4-5.4-11.8-11.8-11.8H176.3z" fill="#444444" p-id="22190"></path><path d="M392 527.5c-51 0-92.5-41.5-92.5-92.5s41.5-92.5 92.5-92.5 92.5 41.5 92.5 92.5-41.5 92.5-92.5 92.5z m0-145.7c-29.3 0-53.1 23.8-53.1 53.1S362.7 488 392 488s53.1-23.8 53.1-53.1-23.8-53.1-53.1-53.1z" fill="#444444" p-id="22191"></path><path d="M392 684.4c-38.6 0-77.1-0.1-106-0.4-14.5-0.1-26.7-0.3-35.1-0.4-13.7-0.3-32.5-0.7-32.5-20.3 0-95.7 77.9-173.6 173.7-173.6s173.7 77.9 173.7 173.6c0 19.6-18.8 20-32.5 20.3-8.5 0.2-20.6 0.3-35.1 0.4-29.1 0.3-67.6 0.4-106.2 0.4z m-132.9-40c54.7 0.8 211.2 0.8 265.9 0-9.2-65.1-65.3-115.4-132.9-115.4s-123.8 50.3-133 115.4z" fill="#444444" p-id="22192"></path><path d="M776.2 399.6H565.8c-10.9 0-19.7-8.8-19.7-19.7s8.8-19.7 19.7-19.7h210.4c10.9 0 19.7 8.8 19.7 19.7s-8.8 19.7-19.7 19.7zM776.2 533.1H622.4c-10.9 0-19.7-8.8-19.7-19.7 0-10.9 8.8-19.7 19.7-19.7h153.7c10.9 0 19.7 8.8 19.7 19.7 0.1 10.9-8.7 19.7-19.6 19.7zM776.2 666.7H671c-10.9 0-19.7-8.8-19.7-19.7s8.8-19.7 19.7-19.7h105.2c10.9 0 19.7 8.8 19.7 19.7s-8.8 19.7-19.7 19.7z" fill="#FF8803" p-id="22193"></path></svg>