<?xml version="1.0" standalone="no"?><!DOCTYPE svg PUBLIC "-//W3C//DTD SVG 1.1//EN" "http://www.w3.org/Graphics/SVG/1.1/DTD/svg11.dtd"><svg t="1751974322472" class="icon" viewBox="0 0 1024 1024" version="1.1" xmlns="http://www.w3.org/2000/svg" p-id="7574" width="16" height="16" xmlns:xlink="http://www.w3.org/1999/xlink"><path d="M959.166389 635.517151c-0.1361 0.35918-0.835018 2.028193-2.302439 3.213181-22.740934 19.149129-47.914266 36.317137-74.814939 50.947346-2.412956 1.315972-36.492122 17.379832-47.073108 21.164019-63.301721 22.615067-142.786007 38.044478-239.572354 17.35118-128.498606-27.473725-200.240557-98.253768-245.774613-155.440212-45.863561-57.597813-53.56701-84.070744-91.26254-103.534028-20.056801-10.361999-38.95522-9.827833-52.988842-6.602372 29.17753 27.91784 124.187417 123.644041 124.187417 185.800683 0 73.418127-59.375296 132.937708-132.624577 132.937708S64.303538 721.835076 64.303538 648.415926c0-59.482743 86.981027-149.656485 120.025631-181.7883 0.044002-0.209778 0.115634-0.423649 0.23843-0.642636 0.435928-0.768503 0.924045-1.529843 1.394766-2.293229-0.410346-0.12075-1.013073-0.227174-1.951445-0.297782-1.228991-0.093121-6.492878-0.449231-8.395204-0.760317-16.86204-2.78237-22.728654-10.129708-24.785499-14.501272-1.099031-2.330068 0.283456-3.90289 1.934049-4.260024 15.284101-3.228531 31.104415 6.14393 35.793204 9.237385 0.898463 0.590448 0.743944-0.166799 0.477884-0.719384-4.573155-9.28855-0.576121-16.638959 2.101871-20.095687 1.092891-1.409093 2.477424-3.02694 4.90266-3.02694 4.481058 0 7.29822 5.968945 8.098445 12.44545 10.257621-10.070356 21.074991-18.36323 27.333532-23.248494 10.380418-8.107655 17.871019-16.844643 22.119787-27.597545 12.806677-32.369222 25.354458-93.384877 99.269911-129.410372 16.299221-7.943926 87.665619-35.553751 163.250084 18.21792 18.143219 12.910031 27.709085 27.635407 41.006949 46.155203 9.197476 11.397584 26.305109 36.882002 71.659063 38.32691 14.798031 0.471744 40.424688-0.301875 67.078745-6.692423 80.829933-19.380396 121.648594-59.462277 155.482167-105.363699 2.419096-3.300162 4.164856-5.89936 5.601578-7.963369 0.491187-0.693802 3.25309-4.859681 4.423753-6.108115 3.583618-3.749394 8.640798-6.091742 14.254655-6.091742 6.073322 0 11.513218 2.759857 15.128559 7.080256 3.609201 4.355191 4.320399 9.572006 5.14109 12.913101 10.103102 40.753169 5.465478 83.008552 1.585101 107.486036-3.725858 23.552415-20.154016 70.689992-46.556339 104.33016-10.523681 13.403265-23.180955 26.816762-38.34226 39.995923 0 0-22.669302 18.824741-39.745213 27.958772-23.097044 15.916505-5.569856 35.341926-4.832052 36.124755 1.441838 1.572822 2.935865 3.103688 4.462638 4.596691 38.658462 37.652552 103.370299 51.845809 160.170956 51.845809 4.475941 0 8.951883-0.141216 13.363356-0.432859 0.588401-0.038886 1.714038-0.080841 2.814092-0.118704 1.384533-0.041956 3.667529 0.054235 4.03592 0.144286 3.925403 0.946558 6.848988 4.464685 6.848988 8.65717C959.696462 633.574916 959.502034 634.57571 959.166389 635.517151zM339.338568 383.099235c-2.14178-10.883885-12.773931-18.121729-23.859407-16.000416-11.002588 2.118244-18.22713 12.784164-16.131399 23.64963 2.160199 10.987239 12.857842 18.153452 23.86657 16.060791C334.254783 404.686902 341.467045 394.046564 339.338568 383.099235zM790.799774 285.09413c-24.00267 32.488948-73.644277 53.691853-108.880803 62.784952-16.047488 4.134157-31.724539 6.290263-48.463782 4.894474-7.411807-0.6191-13.660114-1.803066-20.367887-3.742231-2.619664-0.757247-2.670829-3.778046-0.303922-4.108574 21.829168-3.071965 86.521562-15.990183 139.765207-98.662067 4.320399-8.473999 13.175067-14.289448 23.400966-14.289448 14.514575 0 26.291806 11.683087 26.291806 26.088168 0 3.213181-0.607844 6.268774-1.675152 9.109472C799.919479 270.879384 797.3387 276.248671 790.799774 285.09413z" fill="#07a407" p-id="7575"></path></svg>